<?xml version="1.0" encoding="utf-8"?>
<!-- Generator: Adobe Illustrator 21.0.0, SVG Export Plug-In . SVG Version: 6.00 Build 0)  -->
<svg version="1.1" id="Layer_1" xmlns="http://www.w3.org/2000/svg" xmlns:xlink="http://www.w3.org/1999/xlink" x="0px" y="0px"
	 viewBox="0 0 500 500" style="enable-background:new 0 0 500 500;" xml:space="preserve">
<style type="text/css">
	.st0{fill:#666666;}
	.st1{fill:#333333;}
	.st2{fill:#2E3192;}
</style>
<g>
	<rect x="316.2" y="197.6" class="st0" width="9.8" height="9.8"/>
	<rect x="316.2" y="187.8" class="st0" width="9.8" height="9.8"/>
	<rect x="316.2" y="178" class="st0" width="9.8" height="9.8"/>
	<rect x="316.2" y="168.2" class="st0" width="9.8" height="9.8"/>
	<rect x="306.4" y="168.2" class="st0" width="9.8" height="9.8"/>
	<rect x="296.6" y="168.2" class="st1" width="9.8" height="9.8"/>
	<rect x="296.6" y="158.4" class="st1" width="9.8" height="9.8"/>
	<rect x="296.6" y="148.6" class="st1" width="9.8" height="9.8"/>
	<rect x="286.8" y="178" class="st1" width="9.8" height="9.8"/>
	<rect x="286.8" y="168.2" class="st1" width="9.8" height="9.8"/>
	<rect x="286.8" y="158.4" class="st1" width="9.8" height="9.8"/>
	<rect x="286.8" y="148.6" class="st2" width="9.8" height="9.8"/>
	<rect x="277" y="178" class="st1" width="9.8" height="9.8"/>
	<rect x="277" y="168.2" class="st1" width="9.8" height="9.8"/>
	<rect x="277" y="158.4" class="st2" width="9.8" height="9.8"/>
	<rect x="277" y="148.6" class="st2" width="9.8" height="9.8"/>
	<rect x="267.2" y="178" class="st1" width="9.8" height="9.8"/>
	<rect x="267.2" y="168.2" class="st1" width="9.8" height="9.8"/>
	<rect x="267.2" y="158.4" class="st2" width="9.8" height="9.8"/>
	<rect x="267.2" y="148.6" class="st2" width="9.8" height="9.8"/>
	<rect x="257.4" y="197.6" class="st0" width="9.8" height="9.8"/>
	<rect x="257.4" y="187.8" class="st0" width="9.8" height="9.8"/>
	<rect x="257.4" y="178" class="st1" width="9.8" height="9.8"/>
	<rect x="257.4" y="168.2" class="st1" width="9.8" height="9.8"/>
	<rect x="257.4" y="158.4" class="st2" width="9.8" height="9.8"/>
	<rect x="257.4" y="148.6" class="st2" width="9.8" height="9.8"/>
	<rect x="247.6" y="178" class="st1" width="9.8" height="9.8"/>
	<rect x="247.6" y="168.2" class="st1" width="9.8" height="9.8"/>
	<rect x="247.6" y="158.4" class="st2" width="9.8" height="9.8"/>
	<rect x="247.6" y="148.6" class="st2" width="9.8" height="9.8"/>
	<rect x="237.8" y="178" class="st1" width="9.8" height="9.8"/>
	<rect x="237.8" y="168.2" class="st1" width="9.8" height="9.8"/>
	<rect x="237.8" y="158.4" class="st2" width="9.8" height="9.8"/>
	<rect x="237.8" y="148.6" class="st2" width="9.8" height="9.8"/>
	<rect x="228" y="178" class="st1" width="9.8" height="9.8"/>
	<rect x="228" y="168.2" class="st1" width="9.8" height="9.8"/>
	<rect x="228" y="158.4" class="st2" width="9.8" height="9.8"/>
	<rect x="228" y="148.6" class="st2" width="9.8" height="9.8"/>
	<rect x="218.2" y="178" class="st1" width="9.8" height="9.8"/>
	<rect x="218.2" y="168.2" class="st1" width="9.8" height="9.8"/>
	<rect x="218.2" y="158.4" class="st2" width="9.8" height="9.8"/>
	<rect x="218.2" y="148.6" class="st2" width="9.8" height="9.8"/>
	<rect x="208.4" y="178" class="st1" width="9.8" height="9.8"/>
	<rect x="208.4" y="168.2" class="st1" width="9.8" height="9.8"/>
	<rect x="208.4" y="158.4" class="st2" width="9.8" height="9.8"/>
	<rect x="208.4" y="148.6" class="st2" width="9.8" height="9.8"/>
	<rect x="198.6" y="178" class="st1" width="9.8" height="9.8"/>
	<rect x="198.6" y="168.2" class="st1" width="9.8" height="9.8"/>
	<rect x="198.6" y="158.4" class="st2" width="9.8" height="9.8"/>
	<rect x="198.6" y="148.6" class="st2" width="9.8" height="9.8"/>
	<rect x="188.8" y="197.6" class="st0" width="9.8" height="9.8"/>
	<rect x="188.8" y="187.8" class="st0" width="9.8" height="9.8"/>
	<rect x="188.8" y="178" class="st1" width="9.8" height="9.8"/>
	<rect x="188.8" y="168.2" class="st1" width="9.8" height="9.8"/>
	<rect x="188.8" y="158.4" class="st2" width="9.8" height="9.8"/>
	<rect x="188.8" y="148.6" class="st2" width="9.8" height="9.8"/>
	<rect x="179" y="178" class="st1" width="9.8" height="9.8"/>
	<rect x="179" y="168.2" class="st1" width="9.8" height="9.8"/>
	<rect x="179" y="158.4" class="st2" width="9.8" height="9.8"/>
	<rect x="179" y="148.6" class="st2" width="9.8" height="9.8"/>
	<rect x="169.2" y="178" class="st1" width="9.8" height="9.8"/>
	<rect x="169.2" y="168.2" class="st1" width="9.8" height="9.8"/>
	<rect x="169.2" y="158.4" class="st2" width="9.8" height="9.8"/>
	<rect x="169.2" y="148.6" class="st2" width="9.8" height="9.8"/>
	<rect x="159.4" y="178" class="st1" width="9.8" height="9.8"/>
	<rect x="159.4" y="168.2" class="st1" width="9.8" height="9.8"/>
	<rect x="159.4" y="158.4" class="st1" width="9.8" height="9.8"/>
	<rect x="159.4" y="148.6" class="st2" width="9.8" height="9.8"/>
	<rect x="149.6" y="168.2" class="st1" width="9.8" height="9.8"/>
	<rect x="149.6" y="158.4" class="st1" width="9.8" height="9.8"/>
	<rect x="149.6" y="148.6" class="st1" width="9.8" height="9.8"/>
	<rect x="139.8" y="168.2" class="st0" width="9.8" height="9.8"/>
	<rect x="130" y="197.6" class="st0" width="9.8" height="9.8"/>
	<rect x="130" y="187.8" class="st0" width="9.8" height="9.8"/>
	<rect x="130" y="178" class="st0" width="9.8" height="9.8"/>
	<rect x="130" y="168.2" class="st0" width="9.8" height="9.8"/>
</g>
</svg>
