<?xml version="1.0" encoding="utf-8"?>
<!-- Generator: Adobe Illustrator 21.0.0, SVG Export Plug-In . SVG Version: 6.00 Build 0)  -->
<svg version="1.1" id="Layer_1" xmlns="http://www.w3.org/2000/svg" xmlns:xlink="http://www.w3.org/1999/xlink" x="0px" y="0px"
	 viewBox="0 0 500 500" style="enable-background:new 0 0 500 500;" xml:space="preserve">
<style type="text/css">
	.st0{fill:#333333;}
	.st1{fill:#B3B3B3;}
</style>
<g>
	<rect x="403.5" y="226" class="st0" width="9.8" height="9.8"/>
	<rect x="403.5" y="216.2" class="st0" width="9.8" height="9.8"/>
	<rect x="403.5" y="206.4" class="st0" width="9.8" height="9.8"/>
	<rect x="403.5" y="196.6" class="st0" width="9.8" height="9.8"/>
	<rect x="403.5" y="186.8" class="st0" width="9.8" height="9.8"/>
	<rect x="403.5" y="177" class="st0" width="9.8" height="9.8"/>
	<rect x="403.5" y="167.2" class="st0" width="9.8" height="9.8"/>
	<rect x="403.5" y="157.4" class="st0" width="9.8" height="9.8"/>
	<rect x="403.5" y="147.6" class="st0" width="9.8" height="9.8"/>
	<rect x="403.5" y="137.8" class="st0" width="9.8" height="9.8"/>
	<rect x="393.7" y="226" class="st0" width="9.8" height="9.8"/>
	<rect x="393.7" y="216.2" class="st0" width="9.8" height="9.8"/>
	<rect x="393.7" y="206.4" class="st0" width="9.8" height="9.8"/>
	<rect x="393.7" y="196.6" class="st0" width="9.8" height="9.8"/>
	<rect x="393.7" y="186.8" class="st0" width="9.8" height="9.8"/>
	<rect x="393.7" y="177" class="st0" width="9.8" height="9.8"/>
	<rect x="393.7" y="167.2" class="st0" width="9.8" height="9.8"/>
	<rect x="393.7" y="157.4" class="st0" width="9.8" height="9.8"/>
	<rect x="393.7" y="147.6" class="st0" width="9.8" height="9.8"/>
	<rect x="393.7" y="137.8" class="st0" width="9.8" height="9.8"/>
	<rect x="383.8" y="245.6" class="st0" width="9.8" height="9.8"/>
	<rect x="383.8" y="235.8" class="st0" width="9.8" height="9.8"/>
	<rect x="383.8" y="226" class="st0" width="9.8" height="9.8"/>
	<rect x="383.8" y="216.2" class="st1" width="9.8" height="9.8"/>
	<rect x="383.8" y="206.4" class="st1" width="9.8" height="9.8"/>
	<rect x="383.8" y="196.6" class="st1" width="9.8" height="9.8"/>
	<rect x="383.8" y="186.8" class="st1" width="9.8" height="9.8"/>
	<rect x="383.8" y="177" class="st1" width="9.8" height="9.8"/>
	<rect x="383.8" y="167.2" class="st1" width="9.8" height="9.8"/>
	<rect x="383.8" y="157.4" class="st1" width="9.8" height="9.8"/>
	<rect x="383.8" y="147.6" class="st1" width="9.8" height="9.8"/>
	<rect x="383.8" y="137.8" class="st0" width="9.8" height="9.8"/>
	<rect x="383.8" y="128" class="st0" width="9.8" height="9.8"/>
	<rect x="383.8" y="118.1" class="st0" width="9.8" height="9.8"/>
	<rect x="374" y="245.6" class="st0" width="9.8" height="9.8"/>
	<rect x="374" y="235.8" class="st0" width="9.8" height="9.8"/>
	<rect x="374" y="226" class="st1" width="9.8" height="9.8"/>
	<rect x="374" y="216.2" class="st1" width="9.8" height="9.8"/>
	<rect x="374" y="206.4" class="st1" width="9.8" height="9.8"/>
	<rect x="374" y="196.6" class="st1" width="9.8" height="9.8"/>
	<rect x="374" y="186.8" class="st1" width="9.8" height="9.8"/>
	<rect x="374" y="177" class="st1" width="9.8" height="9.8"/>
	<rect x="374" y="167.2" class="st1" width="9.8" height="9.8"/>
	<rect x="374" y="157.4" class="st1" width="9.8" height="9.8"/>
	<rect x="374" y="147.6" class="st1" width="9.8" height="9.8"/>
	<rect x="374" y="137.8" class="st1" width="9.8" height="9.8"/>
	<rect x="374" y="128" class="st0" width="9.8" height="9.8"/>
	<rect x="374" y="118.1" class="st0" width="9.8" height="9.8"/>
	<rect x="364.3" y="245.6" class="st0" width="9.8" height="9.8"/>
	<rect x="364.3" y="235.8" class="st0" width="9.8" height="9.8"/>
	<rect x="364.3" y="226" class="st1" width="9.8" height="9.8"/>
	<rect x="364.3" y="216.2" class="st1" width="9.8" height="9.8"/>
	<rect x="364.3" y="206.4" class="st1" width="9.8" height="9.8"/>
	<rect x="364.3" y="196.6" class="st1" width="9.8" height="9.8"/>
	<rect x="364.3" y="186.8" class="st1" width="9.8" height="9.8"/>
	<rect x="364.3" y="177" class="st1" width="9.8" height="9.8"/>
	<rect x="364.3" y="167.2" class="st1" width="9.8" height="9.8"/>
	<rect x="364.3" y="157.4" class="st1" width="9.8" height="9.8"/>
	<rect x="364.3" y="147.6" class="st1" width="9.8" height="9.8"/>
	<rect x="364.3" y="137.8" class="st1" width="9.8" height="9.8"/>
	<rect x="364.3" y="128" class="st0" width="9.8" height="9.8"/>
	<rect x="364.3" y="118.1" class="st0" width="9.8" height="9.8"/>
	<rect x="354.4" y="255.4" class="st0" width="9.8" height="9.8"/>
	<rect x="354.4" y="245.6" class="st0" width="9.8" height="9.8"/>
	<rect x="354.4" y="235.8" class="st1" width="9.8" height="9.8"/>
	<rect x="354.4" y="226" class="st1" width="9.8" height="9.8"/>
	<rect x="354.4" y="216.2" class="st1" width="9.8" height="9.8"/>
	<rect x="354.4" y="206.4" class="st1" width="9.8" height="9.8"/>
	<rect x="354.4" y="196.6" class="st1" width="9.8" height="9.8"/>
	<rect x="354.4" y="186.8" class="st1" width="9.8" height="9.8"/>
	<rect x="354.4" y="177" class="st1" width="9.8" height="9.8"/>
	<rect x="354.4" y="167.2" class="st1" width="9.8" height="9.8"/>
	<rect x="354.4" y="157.4" class="st1" width="9.8" height="9.8"/>
	<rect x="354.4" y="147.6" class="st1" width="9.8" height="9.8"/>
	<rect x="354.4" y="137.8" class="st1" width="9.8" height="9.8"/>
	<rect x="354.4" y="128" class="st1" width="9.8" height="9.8"/>
	<rect x="354.4" y="118.1" class="st0" width="9.8" height="9.8"/>
	<rect x="354.4" y="108.3" class="st0" width="9.8" height="9.8"/>
	<rect x="344.6" y="255.4" class="st0" width="9.8" height="9.8"/>
	<rect x="344.6" y="245.6" class="st0" width="9.8" height="9.8"/>
	<rect x="344.6" y="235.8" class="st1" width="9.8" height="9.8"/>
	<rect x="344.6" y="226" class="st1" width="9.8" height="9.8"/>
	<rect x="344.6" y="216.2" class="st1" width="9.8" height="9.8"/>
	<rect x="344.6" y="206.4" class="st1" width="9.8" height="9.8"/>
	<rect x="344.6" y="196.6" class="st1" width="9.8" height="9.8"/>
	<rect x="344.6" y="186.8" class="st1" width="9.8" height="9.8"/>
	<rect x="344.6" y="177" class="st1" width="9.8" height="9.8"/>
	<rect x="344.6" y="167.2" class="st1" width="9.8" height="9.8"/>
	<rect x="344.6" y="157.4" class="st1" width="9.8" height="9.8"/>
	<rect x="344.6" y="147.6" class="st1" width="9.8" height="9.8"/>
	<rect x="344.6" y="137.8" class="st1" width="9.8" height="9.8"/>
	<rect x="344.6" y="128" class="st1" width="9.8" height="9.8"/>
	<rect x="344.6" y="118.1" class="st0" width="9.8" height="9.8"/>
	<rect x="344.6" y="108.3" class="st0" width="9.8" height="9.8"/>
	<rect x="334.8" y="255.4" class="st0" width="9.8" height="9.8"/>
	<rect x="334.8" y="245.6" class="st0" width="9.8" height="9.8"/>
	<rect x="334.8" y="235.8" class="st1" width="9.8" height="9.8"/>
	<rect x="334.8" y="226" class="st1" width="9.8" height="9.8"/>
	<rect x="334.8" y="216.2" class="st1" width="9.8" height="9.8"/>
	<rect x="334.8" y="206.4" class="st1" width="9.8" height="9.8"/>
	<rect x="334.8" y="196.6" class="st1" width="9.8" height="9.8"/>
	<rect x="334.8" y="186.8" class="st1" width="9.8" height="9.8"/>
	<rect x="334.8" y="177" class="st1" width="9.8" height="9.8"/>
	<rect x="334.8" y="167.2" class="st1" width="9.8" height="9.8"/>
	<rect x="334.8" y="157.4" class="st1" width="9.8" height="9.8"/>
	<rect x="334.8" y="147.6" class="st1" width="9.8" height="9.8"/>
	<rect x="334.8" y="137.8" class="st1" width="9.8" height="9.8"/>
	<rect x="334.8" y="128" class="st1" width="9.8" height="9.8"/>
	<rect x="334.8" y="118.1" class="st0" width="9.8" height="9.8"/>
	<rect x="334.8" y="108.3" class="st0" width="9.8" height="9.8"/>
	<rect x="325" y="255.4" class="st0" width="9.8" height="9.8"/>
	<rect x="325" y="245.6" class="st0" width="9.8" height="9.8"/>
	<rect x="325" y="235.8" class="st1" width="9.8" height="9.8"/>
	<rect x="325" y="226" class="st1" width="9.8" height="9.8"/>
	<rect x="325" y="216.2" class="st1" width="9.8" height="9.8"/>
	<rect x="325" y="206.4" class="st1" width="9.8" height="9.8"/>
	<rect x="325" y="196.6" class="st1" width="9.8" height="9.8"/>
	<rect x="325" y="186.8" class="st1" width="9.8" height="9.8"/>
	<rect x="325" y="177" class="st1" width="9.8" height="9.8"/>
	<rect x="325" y="167.2" class="st1" width="9.8" height="9.8"/>
	<rect x="325" y="157.4" class="st1" width="9.8" height="9.8"/>
	<rect x="325" y="147.6" class="st1" width="9.8" height="9.8"/>
	<rect x="325" y="137.8" class="st1" width="9.8" height="9.8"/>
	<rect x="325" y="128" class="st1" width="9.8" height="9.8"/>
	<rect x="325" y="118.1" class="st0" width="9.8" height="9.8"/>
	<rect x="325" y="108.3" class="st0" width="9.8" height="9.8"/>
	<rect x="315.2" y="255.4" class="st0" width="9.8" height="9.8"/>
	<rect x="315.2" y="245.6" class="st0" width="9.8" height="9.8"/>
	<rect x="315.2" y="235.8" class="st1" width="9.8" height="9.8"/>
	<rect x="315.2" y="226" class="st1" width="9.8" height="9.8"/>
	<rect x="315.2" y="216.2" class="st1" width="9.8" height="9.8"/>
	<rect x="315.2" y="206.4" class="st1" width="9.8" height="9.8"/>
	<rect x="315.2" y="196.6" class="st1" width="9.8" height="9.8"/>
	<rect x="315.2" y="186.8" class="st1" width="9.8" height="9.8"/>
	<rect x="315.2" y="177" class="st1" width="9.8" height="9.8"/>
	<rect x="315.2" y="167.2" class="st1" width="9.8" height="9.8"/>
	<rect x="315.2" y="157.4" class="st1" width="9.8" height="9.8"/>
	<rect x="315.2" y="147.6" class="st1" width="9.8" height="9.8"/>
	<rect x="315.2" y="137.8" class="st1" width="9.8" height="9.8"/>
	<rect x="315.2" y="128" class="st1" width="9.8" height="9.8"/>
	<rect x="315.2" y="118.1" class="st0" width="9.8" height="9.8"/>
	<rect x="315.2" y="108.3" class="st0" width="9.8" height="9.8"/>
	<rect x="305.4" y="255.4" class="st0" width="9.8" height="9.8"/>
	<rect x="305.4" y="245.6" class="st0" width="9.8" height="9.8"/>
	<rect x="305.4" y="235.8" class="st1" width="9.8" height="9.8"/>
	<rect x="305.4" y="226" class="st1" width="9.8" height="9.8"/>
	<rect x="305.4" y="216.2" class="st1" width="9.8" height="9.8"/>
	<rect x="305.4" y="206.4" class="st1" width="9.8" height="9.8"/>
	<rect x="305.4" y="196.6" class="st1" width="9.8" height="9.8"/>
	<rect x="305.4" y="186.8" class="st1" width="9.8" height="9.8"/>
	<rect x="305.4" y="177" class="st1" width="9.8" height="9.8"/>
	<rect x="305.4" y="167.2" class="st1" width="9.8" height="9.8"/>
	<rect x="305.4" y="157.4" class="st1" width="9.8" height="9.8"/>
	<rect x="305.4" y="147.6" class="st1" width="9.8" height="9.8"/>
	<rect x="305.4" y="137.8" class="st1" width="9.8" height="9.8"/>
	<rect x="305.4" y="128" class="st1" width="9.8" height="9.8"/>
	<rect x="305.4" y="118.1" class="st0" width="9.8" height="9.8"/>
	<rect x="305.4" y="108.3" class="st0" width="9.8" height="9.8"/>
	<rect x="295.6" y="255.4" class="st0" width="9.8" height="9.8"/>
	<rect x="295.6" y="245.6" class="st0" width="9.8" height="9.8"/>
	<rect x="295.6" y="235.8" class="st1" width="9.8" height="9.8"/>
	<rect x="295.6" y="226" class="st1" width="9.8" height="9.8"/>
	<rect x="295.6" y="216.2" class="st1" width="9.8" height="9.8"/>
	<rect x="295.6" y="206.4" class="st1" width="9.8" height="9.8"/>
	<rect x="295.6" y="196.6" class="st1" width="9.8" height="9.8"/>
	<rect x="295.6" y="186.8" class="st1" width="9.8" height="9.8"/>
	<rect x="295.6" y="177" class="st1" width="9.8" height="9.8"/>
	<rect x="295.6" y="167.2" class="st1" width="9.8" height="9.8"/>
	<rect x="295.6" y="157.4" class="st1" width="9.8" height="9.8"/>
	<rect x="295.6" y="147.6" class="st1" width="9.8" height="9.8"/>
	<rect x="295.6" y="137.8" class="st1" width="9.8" height="9.8"/>
	<rect x="295.6" y="128" class="st1" width="9.8" height="9.8"/>
	<rect x="295.6" y="118.1" class="st0" width="9.8" height="9.8"/>
	<rect x="295.6" y="108.3" class="st0" width="9.8" height="9.8"/>
	<rect x="285.8" y="255.4" class="st0" width="9.8" height="9.8"/>
	<rect x="285.8" y="245.6" class="st0" width="9.8" height="9.8"/>
	<rect x="285.8" y="235.8" class="st1" width="9.8" height="9.8"/>
	<rect x="285.8" y="226" class="st1" width="9.8" height="9.8"/>
	<rect x="285.8" y="216.2" class="st1" width="9.8" height="9.8"/>
	<rect x="285.8" y="206.4" class="st1" width="9.8" height="9.8"/>
	<rect x="285.8" y="196.6" class="st1" width="9.8" height="9.8"/>
	<rect x="285.8" y="186.8" class="st1" width="9.8" height="9.8"/>
	<rect x="285.8" y="177" class="st1" width="9.8" height="9.8"/>
	<rect x="285.8" y="167.2" class="st1" width="9.8" height="9.8"/>
	<rect x="285.8" y="157.4" class="st1" width="9.8" height="9.8"/>
	<rect x="285.8" y="147.6" class="st1" width="9.8" height="9.8"/>
	<rect x="285.8" y="137.8" class="st1" width="9.8" height="9.8"/>
	<rect x="285.8" y="128" class="st1" width="9.8" height="9.8"/>
	<rect x="285.8" y="118.1" class="st0" width="9.8" height="9.8"/>
	<rect x="285.8" y="108.3" class="st0" width="9.8" height="9.8"/>
	<rect x="276" y="255.4" class="st0" width="9.8" height="9.8"/>
	<rect x="276" y="245.6" class="st0" width="9.8" height="9.8"/>
	<rect x="276" y="235.8" class="st1" width="9.8" height="9.8"/>
	<rect x="276" y="226" class="st1" width="9.8" height="9.8"/>
	<rect x="276" y="216.2" class="st1" width="9.8" height="9.8"/>
	<rect x="276" y="206.4" class="st1" width="9.8" height="9.8"/>
	<rect x="276" y="196.6" class="st1" width="9.8" height="9.8"/>
	<rect x="276" y="186.8" class="st1" width="9.8" height="9.8"/>
	<rect x="276" y="177" class="st1" width="9.8" height="9.8"/>
	<rect x="276" y="167.2" class="st1" width="9.8" height="9.8"/>
	<rect x="276" y="157.4" class="st1" width="9.8" height="9.8"/>
	<rect x="276" y="147.6" class="st1" width="9.8" height="9.8"/>
	<rect x="276" y="137.8" class="st1" width="9.8" height="9.8"/>
	<rect x="276" y="128" class="st1" width="9.8" height="9.8"/>
	<rect x="276" y="118.1" class="st0" width="9.8" height="9.8"/>
	<rect x="276" y="108.3" class="st0" width="9.8" height="9.8"/>
	<rect x="266.2" y="255.4" class="st0" width="9.8" height="9.8"/>
	<rect x="266.2" y="245.6" class="st0" width="9.8" height="9.8"/>
	<rect x="266.2" y="235.8" class="st1" width="9.8" height="9.8"/>
	<rect x="266.2" y="226" class="st1" width="9.8" height="9.8"/>
	<rect x="266.2" y="216.2" class="st1" width="9.8" height="9.8"/>
	<rect x="266.2" y="206.4" class="st1" width="9.8" height="9.8"/>
	<rect x="266.2" y="196.6" class="st1" width="9.8" height="9.8"/>
	<rect x="266.2" y="186.8" class="st1" width="9.8" height="9.8"/>
	<rect x="266.2" y="177" class="st1" width="9.8" height="9.8"/>
	<rect x="266.2" y="167.2" class="st1" width="9.8" height="9.8"/>
	<rect x="266.2" y="157.4" class="st1" width="9.8" height="9.8"/>
	<rect x="266.2" y="147.6" class="st1" width="9.8" height="9.8"/>
	<rect x="266.2" y="137.8" class="st1" width="9.8" height="9.8"/>
	<rect x="266.2" y="128" class="st1" width="9.8" height="9.8"/>
	<rect x="266.2" y="118.1" class="st0" width="9.8" height="9.8"/>
	<rect x="266.2" y="108.3" class="st0" width="9.8" height="9.8"/>
	<rect x="256.4" y="255.4" class="st0" width="9.8" height="9.8"/>
	<rect x="256.4" y="245.6" class="st0" width="9.8" height="9.8"/>
	<rect x="256.4" y="235.8" class="st1" width="9.8" height="9.8"/>
	<rect x="256.4" y="226" class="st1" width="9.8" height="9.8"/>
	<rect x="256.4" y="216.2" class="st1" width="9.8" height="9.8"/>
	<rect x="256.4" y="206.4" class="st1" width="9.8" height="9.8"/>
	<rect x="256.4" y="196.6" class="st1" width="9.8" height="9.8"/>
	<rect x="256.4" y="186.8" class="st1" width="9.8" height="9.8"/>
	<rect x="256.4" y="177" class="st1" width="9.8" height="9.8"/>
	<rect x="256.4" y="167.2" class="st1" width="9.8" height="9.8"/>
	<rect x="256.4" y="157.4" class="st1" width="9.8" height="9.8"/>
	<rect x="256.4" y="147.6" class="st1" width="9.8" height="9.8"/>
	<rect x="256.4" y="137.8" class="st1" width="9.8" height="9.8"/>
	<rect x="256.4" y="128" class="st1" width="9.8" height="9.8"/>
	<rect x="256.4" y="118.1" class="st0" width="9.8" height="9.8"/>
	<rect x="256.4" y="108.3" class="st0" width="9.8" height="9.8"/>
	<rect x="246.6" y="255.4" class="st0" width="9.8" height="9.8"/>
	<rect x="246.6" y="245.6" class="st0" width="9.8" height="9.8"/>
	<rect x="246.6" y="235.8" class="st1" width="9.8" height="9.8"/>
	<rect x="246.6" y="226" class="st1" width="9.8" height="9.8"/>
	<rect x="246.6" y="216.2" class="st1" width="9.8" height="9.8"/>
	<rect x="246.6" y="206.4" class="st1" width="9.8" height="9.8"/>
	<rect x="246.6" y="196.6" class="st1" width="9.8" height="9.8"/>
	<rect x="246.6" y="186.8" class="st1" width="9.8" height="9.8"/>
	<rect x="246.6" y="177" class="st1" width="9.8" height="9.8"/>
	<rect x="246.6" y="167.2" class="st1" width="9.8" height="9.8"/>
	<rect x="246.6" y="157.4" class="st1" width="9.8" height="9.8"/>
	<rect x="246.6" y="147.6" class="st1" width="9.8" height="9.8"/>
	<rect x="246.6" y="137.8" class="st1" width="9.8" height="9.8"/>
	<rect x="246.6" y="128" class="st1" width="9.8" height="9.8"/>
	<rect x="246.6" y="118.1" class="st0" width="9.8" height="9.8"/>
	<rect x="246.6" y="108.3" class="st0" width="9.8" height="9.8"/>
	<rect x="236.8" y="255.4" class="st0" width="9.8" height="9.8"/>
	<rect x="236.8" y="245.6" class="st0" width="9.8" height="9.8"/>
	<rect x="236.8" y="235.8" class="st1" width="9.8" height="9.8"/>
	<rect x="236.8" y="226" class="st1" width="9.8" height="9.8"/>
	<rect x="236.8" y="216.2" class="st1" width="9.8" height="9.8"/>
	<rect x="236.8" y="206.4" class="st1" width="9.8" height="9.8"/>
	<rect x="236.8" y="196.6" class="st1" width="9.8" height="9.8"/>
	<rect x="236.8" y="186.8" class="st1" width="9.8" height="9.8"/>
	<rect x="236.8" y="177" class="st1" width="9.8" height="9.8"/>
	<rect x="236.8" y="167.2" class="st1" width="9.8" height="9.8"/>
	<rect x="236.8" y="157.4" class="st1" width="9.8" height="9.8"/>
	<rect x="236.8" y="147.6" class="st1" width="9.8" height="9.8"/>
	<rect x="236.8" y="137.8" class="st1" width="9.8" height="9.8"/>
	<rect x="236.8" y="128" class="st1" width="9.8" height="9.8"/>
	<rect x="236.8" y="118.1" class="st0" width="9.8" height="9.8"/>
	<rect x="236.8" y="108.3" class="st0" width="9.8" height="9.8"/>
	<rect x="227" y="255.4" class="st0" width="9.8" height="9.8"/>
	<rect x="227" y="245.6" class="st0" width="9.8" height="9.8"/>
	<rect x="227" y="235.8" class="st1" width="9.8" height="9.8"/>
	<rect x="227" y="226" class="st1" width="9.8" height="9.8"/>
	<rect x="227" y="216.2" class="st1" width="9.8" height="9.8"/>
	<rect x="227" y="206.4" class="st1" width="9.8" height="9.8"/>
	<rect x="227" y="196.6" class="st1" width="9.8" height="9.8"/>
	<rect x="227" y="186.8" class="st1" width="9.8" height="9.8"/>
	<rect x="227" y="177" class="st1" width="9.8" height="9.8"/>
	<rect x="227" y="167.2" class="st1" width="9.8" height="9.8"/>
	<rect x="227" y="157.4" class="st1" width="9.8" height="9.8"/>
	<rect x="227" y="147.6" class="st1" width="9.8" height="9.8"/>
	<rect x="227" y="137.8" class="st1" width="9.8" height="9.8"/>
	<rect x="227" y="128" class="st1" width="9.8" height="9.8"/>
	<rect x="227" y="118.1" class="st0" width="9.8" height="9.8"/>
	<rect x="227" y="108.3" class="st0" width="9.8" height="9.8"/>
	<rect x="217.2" y="255.4" class="st0" width="9.8" height="9.8"/>
	<rect x="217.2" y="245.6" class="st0" width="9.8" height="9.8"/>
	<rect x="217.2" y="235.8" class="st1" width="9.8" height="9.8"/>
	<rect x="217.2" y="226" class="st1" width="9.8" height="9.8"/>
	<rect x="217.2" y="216.2" class="st1" width="9.8" height="9.8"/>
	<rect x="217.2" y="206.4" class="st1" width="9.8" height="9.8"/>
	<rect x="217.2" y="196.6" class="st1" width="9.8" height="9.8"/>
	<rect x="217.2" y="186.8" class="st1" width="9.8" height="9.8"/>
	<rect x="217.2" y="177" class="st1" width="9.8" height="9.8"/>
	<rect x="217.2" y="167.2" class="st1" width="9.8" height="9.8"/>
	<rect x="217.2" y="157.4" class="st1" width="9.8" height="9.8"/>
	<rect x="217.2" y="147.6" class="st1" width="9.8" height="9.8"/>
	<rect x="217.2" y="137.8" class="st1" width="9.8" height="9.8"/>
	<rect x="217.2" y="128" class="st1" width="9.8" height="9.8"/>
	<rect x="217.2" y="118.1" class="st0" width="9.8" height="9.8"/>
	<rect x="217.2" y="108.3" class="st0" width="9.8" height="9.8"/>
	<rect x="207.4" y="255.4" class="st0" width="9.8" height="9.8"/>
	<rect x="207.4" y="245.6" class="st0" width="9.8" height="9.8"/>
	<rect x="207.4" y="235.8" class="st1" width="9.8" height="9.8"/>
	<rect x="207.4" y="226" class="st1" width="9.8" height="9.8"/>
	<rect x="207.4" y="216.2" class="st1" width="9.8" height="9.8"/>
	<rect x="207.4" y="206.4" class="st1" width="9.8" height="9.8"/>
	<rect x="207.4" y="196.6" class="st1" width="9.8" height="9.8"/>
	<rect x="207.4" y="186.8" class="st1" width="9.8" height="9.8"/>
	<rect x="207.4" y="177" class="st1" width="9.8" height="9.8"/>
	<rect x="207.4" y="167.2" class="st1" width="9.8" height="9.8"/>
	<rect x="207.4" y="157.4" class="st1" width="9.8" height="9.8"/>
	<rect x="207.4" y="147.6" class="st1" width="9.8" height="9.8"/>
	<rect x="207.4" y="137.8" class="st1" width="9.8" height="9.8"/>
	<rect x="207.4" y="128" class="st1" width="9.8" height="9.8"/>
	<rect x="207.4" y="118.1" class="st0" width="9.8" height="9.8"/>
	<rect x="207.4" y="108.3" class="st0" width="9.8" height="9.8"/>
	<rect x="197.6" y="255.4" class="st0" width="9.8" height="9.8"/>
	<rect x="197.6" y="245.6" class="st0" width="9.8" height="9.8"/>
	<rect x="197.6" y="235.8" class="st1" width="9.8" height="9.8"/>
	<rect x="197.6" y="226" class="st1" width="9.8" height="9.8"/>
	<rect x="197.6" y="216.2" class="st1" width="9.8" height="9.8"/>
	<rect x="197.6" y="206.4" class="st1" width="9.8" height="9.8"/>
	<rect x="197.6" y="196.6" class="st1" width="9.8" height="9.8"/>
	<rect x="197.6" y="186.8" class="st1" width="9.8" height="9.8"/>
	<rect x="197.6" y="177" class="st1" width="9.8" height="9.8"/>
	<rect x="197.6" y="167.2" class="st1" width="9.8" height="9.8"/>
	<rect x="197.6" y="157.4" class="st1" width="9.8" height="9.8"/>
	<rect x="197.6" y="147.6" class="st1" width="9.8" height="9.8"/>
	<rect x="197.6" y="137.8" class="st1" width="9.8" height="9.8"/>
	<rect x="197.6" y="128" class="st1" width="9.8" height="9.8"/>
	<rect x="197.6" y="118.1" class="st0" width="9.8" height="9.8"/>
	<rect x="197.6" y="108.3" class="st0" width="9.8" height="9.8"/>
	<rect x="187.8" y="255.4" class="st0" width="9.8" height="9.8"/>
	<rect x="187.8" y="245.6" class="st0" width="9.8" height="9.8"/>
	<rect x="187.8" y="235.8" class="st1" width="9.8" height="9.8"/>
	<rect x="187.8" y="226" class="st1" width="9.8" height="9.8"/>
	<rect x="187.8" y="216.2" class="st1" width="9.8" height="9.8"/>
	<rect x="187.8" y="206.4" class="st1" width="9.8" height="9.8"/>
	<rect x="187.8" y="196.6" class="st1" width="9.8" height="9.8"/>
	<rect x="187.8" y="186.8" class="st1" width="9.8" height="9.8"/>
	<rect x="187.8" y="177" class="st1" width="9.8" height="9.8"/>
	<rect x="187.8" y="167.2" class="st1" width="9.8" height="9.8"/>
	<rect x="187.8" y="157.4" class="st1" width="9.8" height="9.8"/>
	<rect x="187.8" y="147.6" class="st1" width="9.8" height="9.8"/>
	<rect x="187.8" y="137.8" class="st1" width="9.8" height="9.8"/>
	<rect x="187.8" y="128" class="st1" width="9.8" height="9.8"/>
	<rect x="187.8" y="118.1" class="st0" width="9.8" height="9.8"/>
	<rect x="187.8" y="108.3" class="st0" width="9.8" height="9.8"/>
	<rect x="178" y="255.4" class="st0" width="9.8" height="9.8"/>
	<rect x="178" y="245.6" class="st0" width="9.8" height="9.8"/>
	<rect x="178" y="235.8" class="st1" width="9.8" height="9.8"/>
	<rect x="178" y="226" class="st1" width="9.8" height="9.8"/>
	<rect x="178" y="216.2" class="st1" width="9.8" height="9.8"/>
	<rect x="178" y="206.4" class="st1" width="9.8" height="9.8"/>
	<rect x="178" y="196.6" class="st1" width="9.8" height="9.8"/>
	<rect x="178" y="186.8" class="st1" width="9.8" height="9.8"/>
	<rect x="178" y="177" class="st1" width="9.8" height="9.8"/>
	<rect x="178" y="167.2" class="st1" width="9.8" height="9.8"/>
	<rect x="178" y="157.4" class="st1" width="9.8" height="9.8"/>
	<rect x="178" y="147.6" class="st1" width="9.8" height="9.8"/>
	<rect x="178" y="137.8" class="st1" width="9.8" height="9.8"/>
	<rect x="178" y="128" class="st1" width="9.8" height="9.8"/>
	<rect x="178" y="118.1" class="st0" width="9.8" height="9.8"/>
	<rect x="178" y="108.3" class="st0" width="9.8" height="9.8"/>
	<rect x="168.2" y="255.4" class="st0" width="9.8" height="9.8"/>
	<rect x="168.2" y="245.6" class="st0" width="9.8" height="9.8"/>
	<rect x="168.2" y="235.8" class="st1" width="9.8" height="9.8"/>
	<rect x="168.2" y="226" class="st1" width="9.8" height="9.8"/>
	<rect x="168.2" y="216.2" class="st1" width="9.8" height="9.8"/>
	<rect x="168.2" y="206.4" class="st1" width="9.8" height="9.8"/>
	<rect x="168.2" y="196.6" class="st1" width="9.8" height="9.8"/>
	<rect x="168.2" y="186.8" class="st1" width="9.8" height="9.8"/>
	<rect x="168.2" y="177" class="st1" width="9.8" height="9.8"/>
	<rect x="168.2" y="167.2" class="st1" width="9.8" height="9.8"/>
	<rect x="168.2" y="157.4" class="st1" width="9.8" height="9.8"/>
	<rect x="168.2" y="147.6" class="st1" width="9.8" height="9.8"/>
	<rect x="168.2" y="137.8" class="st1" width="9.8" height="9.8"/>
	<rect x="168.2" y="128" class="st1" width="9.8" height="9.8"/>
	<rect x="168.2" y="118.1" class="st0" width="9.8" height="9.8"/>
	<rect x="168.2" y="108.3" class="st0" width="9.8" height="9.8"/>
	<rect x="158.4" y="255.4" class="st0" width="9.8" height="9.8"/>
	<rect x="158.4" y="245.6" class="st0" width="9.8" height="9.8"/>
	<rect x="158.4" y="235.8" class="st1" width="9.8" height="9.8"/>
	<rect x="158.4" y="226" class="st1" width="9.8" height="9.8"/>
	<rect x="158.4" y="216.2" class="st1" width="9.8" height="9.8"/>
	<rect x="158.4" y="206.4" class="st1" width="9.8" height="9.8"/>
	<rect x="158.4" y="196.6" class="st1" width="9.8" height="9.8"/>
	<rect x="158.4" y="186.8" class="st1" width="9.8" height="9.8"/>
	<rect x="158.4" y="177" class="st1" width="9.8" height="9.8"/>
	<rect x="158.4" y="167.2" class="st1" width="9.8" height="9.8"/>
	<rect x="158.4" y="157.4" class="st1" width="9.8" height="9.8"/>
	<rect x="158.4" y="147.6" class="st1" width="9.8" height="9.8"/>
	<rect x="158.4" y="137.8" class="st1" width="9.8" height="9.8"/>
	<rect x="158.4" y="128" class="st1" width="9.8" height="9.8"/>
	<rect x="158.4" y="118.1" class="st0" width="9.8" height="9.8"/>
	<rect x="158.4" y="108.3" class="st0" width="9.8" height="9.8"/>
	<rect x="148.6" y="255.4" class="st0" width="9.8" height="9.8"/>
	<rect x="148.6" y="245.6" class="st0" width="9.8" height="9.8"/>
	<rect x="148.6" y="235.8" class="st1" width="9.8" height="9.8"/>
	<rect x="148.6" y="226" class="st1" width="9.8" height="9.8"/>
	<rect x="148.6" y="216.2" class="st1" width="9.8" height="9.8"/>
	<rect x="148.6" y="206.4" class="st1" width="9.8" height="9.8"/>
	<rect x="148.6" y="196.6" class="st0" width="9.8" height="9.8"/>
	<rect x="148.6" y="186.8" class="st0" width="9.8" height="9.8"/>
	<rect x="148.6" y="177" class="st0" width="9.8" height="9.8"/>
	<rect x="148.6" y="167.2" class="st1" width="9.8" height="9.8"/>
	<rect x="148.6" y="157.4" class="st1" width="9.8" height="9.8"/>
	<rect x="148.6" y="147.6" class="st1" width="9.8" height="9.8"/>
	<rect x="148.6" y="137.8" class="st1" width="9.8" height="9.8"/>
	<rect x="148.6" y="128" class="st1" width="9.8" height="9.8"/>
	<rect x="148.6" y="118.1" class="st0" width="9.8" height="9.8"/>
	<rect x="148.6" y="108.3" class="st0" width="9.8" height="9.8"/>
	<rect x="138.8" y="255.4" class="st0" width="9.8" height="9.8"/>
	<rect x="138.8" y="245.6" class="st0" width="9.8" height="9.8"/>
	<rect x="138.8" y="235.8" class="st1" width="9.8" height="9.8"/>
	<rect x="138.8" y="226" class="st1" width="9.8" height="9.8"/>
	<rect x="138.8" y="216.2" class="st1" width="9.8" height="9.8"/>
	<rect x="138.8" y="206.4" class="st1" width="9.8" height="9.8"/>
	<rect x="138.8" y="196.6" class="st0" width="9.8" height="9.8"/>
	<rect x="138.8" y="186.8" class="st0" width="9.8" height="9.8"/>
	<rect x="138.8" y="177" class="st0" width="9.8" height="9.8"/>
	<rect x="138.8" y="167.2" class="st1" width="9.8" height="9.8"/>
	<rect x="138.8" y="157.4" class="st1" width="9.8" height="9.8"/>
	<rect x="138.8" y="147.6" class="st1" width="9.8" height="9.8"/>
	<rect x="138.8" y="137.8" class="st1" width="9.8" height="9.8"/>
	<rect x="138.8" y="128" class="st1" width="9.8" height="9.8"/>
	<rect x="138.8" y="118.1" class="st0" width="9.8" height="9.8"/>
	<rect x="138.8" y="108.3" class="st0" width="9.8" height="9.8"/>
	<rect x="129" y="255.4" class="st0" width="9.8" height="9.8"/>
	<rect x="129" y="245.6" class="st0" width="9.8" height="9.8"/>
	<rect x="129" y="235.8" class="st1" width="9.8" height="9.8"/>
	<rect x="129" y="226" class="st1" width="9.8" height="9.8"/>
	<rect x="129" y="216.2" class="st1" width="9.8" height="9.8"/>
	<rect x="129" y="206.4" class="st1" width="9.8" height="9.8"/>
	<rect x="129" y="196.6" class="st0" width="9.8" height="9.8"/>
	<rect x="129" y="186.8" class="st0" width="9.8" height="9.8"/>
	<rect x="129" y="177" class="st0" width="9.8" height="9.8"/>
	<rect x="129" y="167.2" class="st1" width="9.8" height="9.8"/>
	<rect x="129" y="157.4" class="st1" width="9.8" height="9.8"/>
	<rect x="129" y="147.6" class="st1" width="9.8" height="9.8"/>
	<rect x="129" y="137.8" class="st1" width="9.8" height="9.8"/>
	<rect x="129" y="128" class="st1" width="9.8" height="9.8"/>
	<rect x="129" y="118.1" class="st0" width="9.8" height="9.8"/>
	<rect x="129" y="108.3" class="st0" width="9.8" height="9.8"/>
	<rect x="119.2" y="255.4" class="st0" width="9.8" height="9.8"/>
	<rect x="119.2" y="245.6" class="st0" width="9.8" height="9.8"/>
	<rect x="119.2" y="235.8" class="st1" width="9.8" height="9.8"/>
	<rect x="119.2" y="226" class="st1" width="9.8" height="9.8"/>
	<rect x="119.2" y="216.2" class="st0" width="9.8" height="9.8"/>
	<rect x="119.2" y="206.4" class="st0" width="9.8" height="9.8"/>
	<rect x="119.2" y="196.6" class="st0" width="9.8" height="9.8"/>
	<rect x="119.2" y="186.8" class="st0" width="9.8" height="9.8"/>
	<rect x="119.2" y="177" class="st0" width="9.8" height="9.8"/>
	<rect x="119.2" y="167.2" class="st0" width="9.8" height="9.8"/>
	<rect x="119.2" y="157.4" class="st0" width="9.8" height="9.8"/>
	<rect x="119.2" y="147.6" class="st1" width="9.8" height="9.8"/>
	<rect x="119.2" y="137.8" class="st1" width="9.8" height="9.8"/>
	<rect x="119.2" y="128" class="st1" width="9.8" height="9.8"/>
	<rect x="119.2" y="118.1" class="st0" width="9.8" height="9.8"/>
	<rect x="119.2" y="108.3" class="st0" width="9.8" height="9.8"/>
	<rect x="109.3" y="255.4" class="st0" width="9.8" height="9.8"/>
	<rect x="109.3" y="245.6" class="st0" width="9.8" height="9.8"/>
	<rect x="109.3" y="235.8" class="st1" width="9.8" height="9.8"/>
	<rect x="109.3" y="226" class="st1" width="9.8" height="9.8"/>
	<rect x="109.3" y="216.2" class="st1" width="9.8" height="9.8"/>
	<rect x="109.3" y="206.4" class="st0" width="9.8" height="9.8"/>
	<rect x="109.3" y="196.6" class="st0" width="9.8" height="9.8"/>
	<rect x="109.3" y="186.8" class="st0" width="9.8" height="9.8"/>
	<rect x="109.3" y="177" class="st0" width="9.8" height="9.8"/>
	<rect x="109.3" y="167.2" class="st0" width="9.8" height="9.8"/>
	<rect x="109.3" y="157.4" class="st1" width="9.8" height="9.8"/>
	<rect x="109.3" y="147.6" class="st1" width="9.8" height="9.8"/>
	<rect x="109.3" y="137.8" class="st1" width="9.8" height="9.8"/>
	<rect x="109.3" y="128" class="st1" width="9.8" height="9.8"/>
	<rect x="109.3" y="118.1" class="st0" width="9.8" height="9.8"/>
	<rect x="109.3" y="108.3" class="st0" width="9.8" height="9.8"/>
	<rect x="99.5" y="245.6" class="st0" width="9.8" height="9.8"/>
	<rect x="99.5" y="235.8" class="st0" width="9.8" height="9.8"/>
	<rect x="99.5" y="226" class="st1" width="9.8" height="9.8"/>
	<rect x="99.5" y="216.2" class="st1" width="9.8" height="9.8"/>
	<rect x="99.5" y="206.4" class="st1" width="9.8" height="9.8"/>
	<rect x="99.5" y="196.6" class="st0" width="9.8" height="9.8"/>
	<rect x="99.5" y="186.8" class="st0" width="9.8" height="9.8"/>
	<rect x="99.5" y="177" class="st0" width="9.8" height="9.8"/>
	<rect x="99.5" y="167.2" class="st1" width="9.8" height="9.8"/>
	<rect x="99.5" y="157.4" class="st1" width="9.8" height="9.8"/>
	<rect x="99.5" y="147.6" class="st1" width="9.8" height="9.8"/>
	<rect x="99.5" y="137.8" class="st1" width="9.8" height="9.8"/>
	<rect x="99.5" y="128" class="st0" width="9.8" height="9.8"/>
	<rect x="99.5" y="118.1" class="st0" width="9.8" height="9.8"/>
	<rect x="89.7" y="245.6" class="st0" width="9.8" height="9.8"/>
	<rect x="89.7" y="235.8" class="st0" width="9.8" height="9.8"/>
	<rect x="89.7" y="226" class="st1" width="9.8" height="9.8"/>
	<rect x="89.7" y="216.2" class="st1" width="9.8" height="9.8"/>
	<rect x="89.7" y="206.4" class="st1" width="9.8" height="9.8"/>
	<rect x="89.7" y="196.6" class="st1" width="9.8" height="9.8"/>
	<rect x="89.7" y="186.8" class="st0" width="9.8" height="9.8"/>
	<rect x="89.7" y="177" class="st1" width="9.8" height="9.8"/>
	<rect x="89.7" y="167.2" class="st1" width="9.8" height="9.8"/>
	<rect x="89.7" y="157.4" class="st1" width="9.8" height="9.8"/>
	<rect x="89.7" y="147.6" class="st1" width="9.8" height="9.8"/>
	<rect x="89.7" y="137.8" class="st1" width="9.8" height="9.8"/>
	<rect x="89.7" y="128" class="st0" width="9.8" height="9.8"/>
	<rect x="89.7" y="118.1" class="st0" width="9.8" height="9.8"/>
	<rect x="79.9" y="245.6" class="st0" width="9.8" height="9.8"/>
	<rect x="79.9" y="235.8" class="st0" width="9.8" height="9.8"/>
	<rect x="79.9" y="226" class="st0" width="9.8" height="9.8"/>
	<rect x="79.9" y="216.2" class="st1" width="9.8" height="9.8"/>
	<rect x="79.9" y="206.4" class="st1" width="9.8" height="9.8"/>
	<rect x="79.9" y="196.6" class="st1" width="9.8" height="9.8"/>
	<rect x="79.9" y="186.8" class="st1" width="9.8" height="9.8"/>
	<rect x="79.9" y="177" class="st1" width="9.8" height="9.8"/>
	<rect x="79.9" y="167.2" class="st1" width="9.8" height="9.8"/>
	<rect x="79.9" y="157.4" class="st1" width="9.8" height="9.8"/>
	<rect x="79.9" y="147.6" class="st1" width="9.8" height="9.8"/>
	<rect x="79.9" y="137.8" class="st0" width="9.8" height="9.8"/>
	<rect x="79.9" y="128" class="st0" width="9.8" height="9.8"/>
	<rect x="79.9" y="118.1" class="st0" width="9.8" height="9.8"/>
	<rect x="70.1" y="226" class="st0" width="9.8" height="9.8"/>
	<rect x="70.1" y="216.2" class="st0" width="9.8" height="9.8"/>
	<rect x="70.1" y="206.4" class="st0" width="9.8" height="9.8"/>
	<rect x="70.1" y="196.6" class="st0" width="9.8" height="9.8"/>
	<rect x="70.1" y="186.8" class="st0" width="9.8" height="9.8"/>
	<rect x="70.1" y="177" class="st0" width="9.8" height="9.8"/>
	<rect x="70.1" y="167.2" class="st0" width="9.8" height="9.8"/>
	<rect x="70.1" y="157.4" class="st0" width="9.8" height="9.8"/>
	<rect x="70.1" y="147.6" class="st0" width="9.8" height="9.8"/>
	<rect x="70.1" y="137.8" class="st0" width="9.8" height="9.8"/>
	<rect x="60.3" y="226" class="st0" width="9.8" height="9.8"/>
	<rect x="60.3" y="216.2" class="st0" width="9.8" height="9.8"/>
	<rect x="60.3" y="206.4" class="st0" width="9.8" height="9.8"/>
	<rect x="60.3" y="196.6" class="st0" width="9.8" height="9.8"/>
	<rect x="60.3" y="186.8" class="st0" width="9.8" height="9.8"/>
	<rect x="60.3" y="177" class="st0" width="9.8" height="9.8"/>
	<rect x="60.3" y="167.2" class="st0" width="9.8" height="9.8"/>
	<rect x="60.3" y="157.4" class="st0" width="9.8" height="9.8"/>
	<rect x="60.3" y="147.6" class="st0" width="9.8" height="9.8"/>
	<rect x="60.3" y="137.8" class="st0" width="9.8" height="9.8"/>
</g>
</svg>
