<?xml version="1.0" encoding="utf-8"?>
<!-- Generator: Adobe Illustrator 21.0.0, SVG Export Plug-In . SVG Version: 6.00 Build 0)  -->
<svg version="1.1" id="Layer_1" xmlns="http://www.w3.org/2000/svg" xmlns:xlink="http://www.w3.org/1999/xlink" x="0px" y="0px"
	 viewBox="0 0 500 500" style="enable-background:new 0 0 500 500;" xml:space="preserve">
<style type="text/css">
	.st0{fill:#FFFF00;}
	.st1{fill:#1A1A1A;}
	.st2{fill:#B3B3B3;}
	.st3{fill:#F2F2F2;}
</style>
<g>
	<rect x="231" y="231" class="st0" width="9.8" height="9.8"/>
	<rect x="221.2" y="231" class="st0" width="9.8" height="9.8"/>
	<rect x="289.8" y="240.8" class="st1" width="9.8" height="9.8"/>
	<rect x="289.8" y="231" class="st1" width="9.8" height="9.8"/>
	<rect x="289.8" y="221.2" class="st1" width="9.8" height="9.8"/>
	<rect x="289.8" y="211.4" class="st1" width="9.8" height="9.8"/>
	<rect x="289.8" y="201.6" class="st1" width="9.8" height="9.8"/>
	<rect x="289.8" y="191.8" class="st1" width="9.8" height="9.8"/>
	<rect x="280" y="250.6" class="st1" width="9.8" height="9.8"/>
	<rect x="280" y="240.8" class="st0" width="9.8" height="9.8"/>
	<rect x="280" y="231" class="st0" width="9.8" height="9.8"/>
	<rect x="280" y="221.2" class="st0" width="9.8" height="9.8"/>
	<rect x="280" y="211.4" class="st0" width="9.8" height="9.8"/>
	<rect x="280" y="201.6" class="st0" width="9.8" height="9.8"/>
	<rect x="280" y="191.8" class="st0" width="9.8" height="9.8"/>
	<rect x="280" y="182" class="st1" width="9.8" height="9.8"/>
	<rect x="270.2" y="260.4" class="st1" width="9.8" height="9.8"/>
	<rect x="270.2" y="250.6" class="st0" width="9.8" height="9.8"/>
	<rect x="270.2" y="240.8" class="st0" width="9.8" height="9.8"/>
	<rect x="270.2" y="231" class="st0" width="9.8" height="9.8"/>
	<rect x="270.2" y="221.2" class="st0" width="9.8" height="9.8"/>
	<rect x="270.2" y="211.4" class="st0" width="9.8" height="9.8"/>
	<rect x="270.2" y="201.6" class="st0" width="9.8" height="9.8"/>
	<rect x="270.2" y="191.8" class="st0" width="9.8" height="9.8"/>
	<rect x="270.2" y="182" class="st0" width="9.8" height="9.8"/>
	<rect x="270.2" y="172.1" class="st1" width="9.8" height="9.8"/>
	<rect x="260.4" y="289.8" class="st1" width="9.8" height="9.8"/>
	<rect x="260.4" y="280" class="st1" width="9.8" height="9.8"/>
	<rect x="260.4" y="270.2" class="st1" width="9.8" height="9.8"/>
	<rect x="260.4" y="260.4" class="st0" width="9.8" height="9.8"/>
	<rect x="260.4" y="250.6" class="st0" width="9.8" height="9.8"/>
	<rect x="260.4" y="240.8" class="st0" width="9.8" height="9.8"/>
	<rect x="260.4" y="231" class="st0" width="9.8" height="9.8"/>
	<rect x="260.4" y="221.2" class="st0" width="9.8" height="9.8"/>
	<rect x="260.4" y="211.4" class="st0" width="9.8" height="9.8"/>
	<rect x="260.4" y="201.6" class="st0" width="9.8" height="9.8"/>
	<rect x="260.4" y="191.8" class="st0" width="9.8" height="9.8"/>
	<rect x="260.4" y="182" class="st0" width="9.8" height="9.8"/>
	<rect x="260.4" y="172.1" class="st1" width="9.8" height="9.8"/>
	<rect x="250.6" y="299.6" class="st1" width="9.8" height="9.8"/>
	<rect x="250.6" y="289.8" class="st1" width="9.8" height="9.8"/>
	<rect x="250.6" y="280" class="st2" width="9.8" height="9.8"/>
	<rect x="250.6" y="270.2" class="st1" width="9.8" height="9.8"/>
	<rect x="250.6" y="260.4" class="st0" width="9.8" height="9.8"/>
	<rect x="250.6" y="250.6" class="st0" width="9.8" height="9.8"/>
	<rect x="250.6" y="240.8" class="st0" width="9.8" height="9.8"/>
	<rect x="250.6" y="231" class="st0" width="9.8" height="9.8"/>
	<rect x="250.6" y="221.2" class="st0" width="9.8" height="9.8"/>
	<rect x="250.6" y="211.4" class="st3" width="9.8" height="9.8"/>
	<rect x="250.6" y="201.6" class="st3" width="9.8" height="9.8"/>
	<rect x="250.6" y="191.8" class="st3" width="9.8" height="9.8"/>
	<rect x="250.6" y="182" class="st0" width="9.8" height="9.8"/>
	<rect x="250.6" y="172.1" class="st1" width="9.8" height="9.8"/>
	<rect x="240.8" y="289.8" class="st1" width="9.8" height="9.8"/>
	<rect x="240.8" y="280" class="st2" width="9.8" height="9.8"/>
	<rect x="240.8" y="270.2" class="st1" width="9.8" height="9.8"/>
	<rect x="240.8" y="260.4" class="st0" width="9.8" height="9.8"/>
	<rect x="240.8" y="250.6" class="st0" width="9.8" height="9.8"/>
	<rect x="240.8" y="240.8" class="st0" width="9.8" height="9.8"/>
	<rect x="240.8" y="231" class="st0" width="9.8" height="9.8"/>
	<rect x="240.8" y="221.2" class="st0" width="9.8" height="9.8"/>
	<rect x="240.8" y="211.4" class="st3" width="9.8" height="9.8"/>
	<rect x="240.8" y="201.6" class="st3" width="9.8" height="9.8"/>
	<rect x="240.8" y="191.8" class="st3" width="9.8" height="9.8"/>
	<rect x="240.8" y="182" class="st0" width="9.8" height="9.8"/>
	<rect x="240.8" y="172.1" class="st1" width="9.8" height="9.8"/>
	<rect x="231" y="260.4" class="st1" width="9.8" height="9.8"/>
	<rect x="231" y="250.6" class="st0" width="9.8" height="9.8"/>
	<rect x="231" y="240.8" class="st0" width="9.8" height="9.8"/>
	<rect x="231" y="221.2" class="st0" width="9.8" height="9.8"/>
	<rect x="231" y="211.4" class="st3" width="9.8" height="9.8"/>
	<rect x="231" y="201.6" class="st3" width="9.8" height="9.8"/>
	<rect x="231" y="191.8" class="st3" width="9.8" height="9.8"/>
	<rect x="231" y="182" class="st0" width="9.8" height="9.8"/>
	<rect x="231" y="172.1" class="st1" width="9.8" height="9.8"/>
	<rect x="221.2" y="250.6" class="st1" width="9.8" height="9.8"/>
	<rect x="221.2" y="240.8" class="st0" width="9.8" height="9.8"/>
	<rect x="221.2" y="221.2" class="st0" width="9.8" height="9.8"/>
	<rect x="221.2" y="211.4" class="st0" width="9.8" height="9.8"/>
	<rect x="221.2" y="201.6" class="st0" width="9.8" height="9.8"/>
	<rect x="221.2" y="191.8" class="st0" width="9.8" height="9.8"/>
	<rect x="221.2" y="182" class="st1" width="9.8" height="9.8"/>
	<rect x="211.4" y="240.8" class="st1" width="9.8" height="9.8"/>
	<rect x="211.4" y="231" class="st1" width="9.8" height="9.8"/>
	<rect x="211.4" y="221.2" class="st1" width="9.8" height="9.8"/>
	<rect x="211.4" y="211.4" class="st1" width="9.8" height="9.8"/>
	<rect x="211.4" y="201.6" class="st1" width="9.8" height="9.8"/>
	<rect x="211.4" y="191.8" class="st1" width="9.8" height="9.8"/>
</g>
</svg>
