<?xml version="1.0" encoding="utf-8"?>
<!-- Generator: Adobe Illustrator 21.0.0, SVG Export Plug-In . SVG Version: 6.00 Build 0)  -->
<svg version="1.1" id="Layer_1" xmlns="http://www.w3.org/2000/svg" xmlns:xlink="http://www.w3.org/1999/xlink" x="0px" y="0px"
	 viewBox="0 0 500 500" style="enable-background:new 0 0 500 500;" xml:space="preserve">
<style type="text/css">
	.st0{fill:#B3B3B3;}
	.st1{fill:#4D4D4D;}
</style>
<g>
	<rect x="284.8" y="178" class="st0" width="9.8" height="9.8"/>
	<rect x="284.8" y="246.6" class="st0" width="9.8" height="9.8"/>
	<rect x="284.8" y="236.8" class="st0" width="9.8" height="9.8"/>
	<rect x="284.8" y="256.4" class="st0" width="9.8" height="9.8"/>
	<rect x="265.2" y="236.8" class="st0" width="9.8" height="9.8"/>
	<rect x="275" y="207.4" class="st0" width="9.8" height="9.8"/>
	<rect x="275" y="197.6" class="st0" width="9.8" height="9.8"/>
	<rect x="265.2" y="246.6" class="st0" width="9.8" height="9.8"/>
	<rect x="275" y="217.2" class="st0" width="9.8" height="9.8"/>
	<rect x="275" y="256.4" class="st0" width="9.8" height="9.8"/>
	<rect x="275" y="246.6" class="st0" width="9.8" height="9.8"/>
	<rect x="275" y="236.8" class="st0" width="9.8" height="9.8"/>
	<rect x="275" y="227" class="st0" width="9.8" height="9.8"/>
	<rect x="275" y="187.8" class="st0" width="9.8" height="9.8"/>
	<rect x="275" y="178" class="st0" width="9.8" height="9.8"/>
	<rect x="265.2" y="256.4" class="st0" width="9.8" height="9.8"/>
	<rect x="265.2" y="197.6" class="st0" width="9.8" height="9.8"/>
	<rect x="265.2" y="227" class="st0" width="9.8" height="9.8"/>
	<rect x="265.2" y="217.2" class="st0" width="9.8" height="9.8"/>
	<rect x="265.2" y="207.4" class="st0" width="9.8" height="9.8"/>
	<rect x="265.2" y="187.8" class="st0" width="9.8" height="9.8"/>
	<rect x="265.2" y="178" class="st0" width="9.8" height="9.8"/>
	<rect x="255.4" y="256.4" class="st0" width="9.8" height="9.8"/>
	<rect x="255.4" y="207.4" class="st0" width="9.8" height="9.8"/>
	<rect x="255.4" y="246.6" class="st0" width="9.8" height="9.8"/>
	<rect x="255.4" y="187.8" class="st0" width="9.8" height="9.8"/>
	<rect x="255.4" y="227" class="st0" width="9.8" height="9.8"/>
	<rect x="255.4" y="197.6" class="st0" width="9.8" height="9.8"/>
	<rect x="255.4" y="178" class="st0" width="9.8" height="9.8"/>
	<rect x="255.4" y="236.8" class="st0" width="9.8" height="9.8"/>
	<rect x="255.4" y="217.2" class="st0" width="9.8" height="9.8"/>
	<rect x="245.6" y="217.2" class="st0" width="9.8" height="9.8"/>
	<rect x="245.6" y="197.6" class="st0" width="9.8" height="9.8"/>
	<rect x="245.6" y="227" class="st0" width="9.8" height="9.8"/>
	<rect x="245.6" y="256.4" class="st0" width="9.8" height="9.8"/>
	<rect x="245.6" y="246.6" class="st0" width="9.8" height="9.8"/>
	<rect x="245.6" y="236.8" class="st0" width="9.8" height="9.8"/>
	<rect x="245.6" y="178" class="st0" width="9.8" height="9.8"/>
	<rect x="245.6" y="207.4" class="st0" width="9.8" height="9.8"/>
	<rect x="245.6" y="187.8" class="st0" width="9.8" height="9.8"/>
	<rect x="235.8" y="256.4" class="st0" width="9.8" height="9.8"/>
	<rect x="235.8" y="217.2" class="st0" width="9.8" height="9.8"/>
	<rect x="235.8" y="246.6" class="st0" width="9.8" height="9.8"/>
	<rect x="235.8" y="236.8" class="st0" width="9.8" height="9.8"/>
	<rect x="235.8" y="227" class="st0" width="9.8" height="9.8"/>
	<rect x="235.8" y="207.4" class="st0" width="9.8" height="9.8"/>
	<rect x="235.8" y="187.8" class="st0" width="9.8" height="9.8"/>
	<rect x="235.8" y="197.6" class="st0" width="9.8" height="9.8"/>
	<rect x="235.8" y="178" class="st0" width="9.8" height="9.8"/>
	<rect x="226" y="187.8" class="st0" width="9.8" height="9.8"/>
	<rect x="226" y="217.2" class="st0" width="9.8" height="9.8"/>
	<rect x="226" y="256.4" class="st0" width="9.8" height="9.8"/>
	<rect x="226" y="246.6" class="st0" width="9.8" height="9.8"/>
	<rect x="226" y="236.8" class="st0" width="9.8" height="9.8"/>
	<rect x="226" y="227" class="st0" width="9.8" height="9.8"/>
	<rect x="226" y="207.4" class="st0" width="9.8" height="9.8"/>
	<rect x="226" y="178" class="st0" width="9.8" height="9.8"/>
	<rect x="226" y="197.6" class="st0" width="9.8" height="9.8"/>
	<rect x="216.2" y="236.8" class="st0" width="9.8" height="9.8"/>
	<rect x="216.2" y="207.4" class="st0" width="9.8" height="9.8"/>
	<rect x="216.2" y="178" class="st0" width="9.8" height="9.8"/>
	<rect x="216.2" y="217.2" class="st0" width="9.8" height="9.8"/>
	<rect x="216.2" y="227" class="st0" width="9.8" height="9.8"/>
	<rect x="216.2" y="256.4" class="st0" width="9.8" height="9.8"/>
	<rect x="216.2" y="197.6" class="st0" width="9.8" height="9.8"/>
	<rect x="216.2" y="187.8" class="st0" width="9.8" height="9.8"/>
	<rect x="216.2" y="246.6" class="st0" width="9.8" height="9.8"/>
	<rect x="196.6" y="246.6" class="st0" width="9.8" height="9.8"/>
	<rect x="196.6" y="256.4" class="st0" width="9.8" height="9.8"/>
	<rect x="206.4" y="217.2" class="st0" width="9.8" height="9.8"/>
	<rect x="196.6" y="227" class="st0" width="9.8" height="9.8"/>
	<rect x="206.4" y="256.4" class="st0" width="9.8" height="9.8"/>
	<rect x="206.4" y="246.6" class="st0" width="9.8" height="9.8"/>
	<rect x="206.4" y="178" class="st0" width="9.8" height="9.8"/>
	<rect x="206.4" y="236.8" class="st0" width="9.8" height="9.8"/>
	<rect x="206.4" y="187.8" class="st0" width="9.8" height="9.8"/>
	<rect x="206.4" y="197.6" class="st0" width="9.8" height="9.8"/>
	<rect x="196.6" y="236.8" class="st0" width="9.8" height="9.8"/>
	<rect x="206.4" y="227" class="st0" width="9.8" height="9.8"/>
	<rect x="206.4" y="207.4" class="st0" width="9.8" height="9.8"/>
	<rect x="196.6" y="217.2" class="st0" width="9.8" height="9.8"/>
	<rect x="196.6" y="207.4" class="st0" width="9.8" height="9.8"/>
	<rect x="196.6" y="197.6" class="st0" width="9.8" height="9.8"/>
	<rect x="196.6" y="187.8" class="st0" width="9.8" height="9.8"/>
	<rect x="196.6" y="178" class="st0" width="9.8" height="9.8"/>
	<rect x="284.8" y="227" class="st0" width="9.8" height="9.8"/>
	<rect x="284.8" y="187.8" class="st0" width="9.8" height="9.8"/>
	<rect x="284.8" y="207.4" class="st0" width="9.8" height="9.8"/>
	<rect x="284.8" y="197.6" class="st0" width="9.8" height="9.8"/>
	<rect x="284.8" y="217.2" class="st0" width="9.8" height="9.8"/>
	<rect x="314.2" y="285.8" class="st1" width="9.8" height="9.8"/>
	<rect x="314.2" y="276" class="st1" width="9.8" height="9.8"/>
	<rect x="314.2" y="266.2" class="st1" width="9.8" height="9.8"/>
	<rect x="314.2" y="168.2" class="st1" width="9.8" height="9.8"/>
	<rect x="314.2" y="158.4" class="st1" width="9.8" height="9.8"/>
	<rect x="314.2" y="148.6" class="st1" width="9.8" height="9.8"/>
	<rect x="304.4" y="285.8" class="st1" width="9.8" height="9.8"/>
	<rect x="304.4" y="276" class="st1" width="9.8" height="9.8"/>
	<rect x="304.4" y="266.2" class="st1" width="9.8" height="9.8"/>
	<rect x="304.4" y="256.4" class="st1" width="9.8" height="9.8"/>
	<rect x="304.4" y="246.6" class="st1" width="9.8" height="9.8"/>
	<rect x="304.4" y="236.8" class="st1" width="9.8" height="9.8"/>
	<rect x="304.4" y="227" class="st1" width="9.8" height="9.8"/>
	<rect x="304.4" y="217.2" class="st1" width="9.8" height="9.8"/>
	<rect x="304.4" y="207.4" class="st1" width="9.8" height="9.8"/>
	<rect x="304.4" y="197.6" class="st1" width="9.8" height="9.8"/>
	<rect x="304.4" y="187.8" class="st1" width="9.8" height="9.8"/>
	<rect x="304.4" y="178" class="st1" width="9.8" height="9.8"/>
	<rect x="304.4" y="168.2" class="st1" width="9.8" height="9.8"/>
	<rect x="304.4" y="158.4" class="st1" width="9.8" height="9.8"/>
	<rect x="304.4" y="148.6" class="st1" width="9.8" height="9.8"/>
	<rect x="294.6" y="285.8" class="st1" width="9.8" height="9.8"/>
	<rect x="294.6" y="276" class="st1" width="9.8" height="9.8"/>
	<rect x="294.6" y="266.2" class="st1" width="9.8" height="9.8"/>
	<rect x="294.6" y="256.4" class="st1" width="9.8" height="9.8"/>
	<rect x="294.6" y="246.6" class="st1" width="9.8" height="9.8"/>
	<rect x="294.6" y="236.8" class="st1" width="9.8" height="9.8"/>
	<rect x="294.6" y="227" class="st1" width="9.8" height="9.8"/>
	<rect x="294.6" y="217.2" class="st1" width="9.8" height="9.8"/>
	<rect x="294.6" y="207.4" class="st1" width="9.8" height="9.8"/>
	<rect x="294.6" y="197.6" class="st1" width="9.8" height="9.8"/>
	<rect x="294.6" y="187.8" class="st1" width="9.8" height="9.8"/>
	<rect x="294.6" y="178" class="st1" width="9.8" height="9.8"/>
	<rect x="294.6" y="168.2" class="st1" width="9.8" height="9.8"/>
	<rect x="294.6" y="158.4" class="st1" width="9.8" height="9.8"/>
	<rect x="294.6" y="148.6" class="st1" width="9.8" height="9.8"/>
	<rect x="284.8" y="276" class="st1" width="9.8" height="9.8"/>
	<rect x="284.8" y="266.2" class="st1" width="9.8" height="9.8"/>
	<rect x="284.8" y="168.2" class="st1" width="9.8" height="9.8"/>
	<rect x="284.8" y="158.4" class="st1" width="9.8" height="9.8"/>
	<rect x="275" y="276" class="st1" width="9.8" height="9.8"/>
	<rect x="275" y="266.2" class="st1" width="9.8" height="9.8"/>
	<rect x="275" y="168.2" class="st1" width="9.8" height="9.8"/>
	<rect x="275" y="158.4" class="st1" width="9.8" height="9.8"/>
	<rect x="265.2" y="276" class="st1" width="9.8" height="9.8"/>
	<rect x="265.2" y="266.2" class="st1" width="9.8" height="9.8"/>
	<rect x="265.2" y="168.2" class="st1" width="9.8" height="9.8"/>
	<rect x="265.2" y="158.4" class="st1" width="9.8" height="9.8"/>
	<rect x="255.4" y="276" class="st1" width="9.8" height="9.8"/>
	<rect x="255.4" y="266.2" class="st1" width="9.8" height="9.8"/>
	<rect x="255.4" y="168.2" class="st1" width="9.8" height="9.8"/>
	<rect x="255.4" y="158.4" class="st1" width="9.8" height="9.8"/>
	<rect x="245.6" y="276" class="st1" width="9.8" height="9.8"/>
	<rect x="245.6" y="266.2" class="st1" width="9.8" height="9.8"/>
	<rect x="245.6" y="168.2" class="st1" width="9.8" height="9.8"/>
	<rect x="245.6" y="158.4" class="st1" width="9.8" height="9.8"/>
	<rect x="235.8" y="276" class="st1" width="9.8" height="9.8"/>
	<rect x="235.8" y="266.2" class="st1" width="9.8" height="9.8"/>
	<rect x="235.8" y="168.2" class="st1" width="9.8" height="9.8"/>
	<rect x="235.8" y="158.4" class="st1" width="9.8" height="9.8"/>
	<rect x="226" y="276" class="st1" width="9.8" height="9.8"/>
	<rect x="226" y="266.2" class="st1" width="9.8" height="9.8"/>
	<rect x="226" y="168.2" class="st1" width="9.8" height="9.8"/>
	<rect x="226" y="158.4" class="st1" width="9.8" height="9.8"/>
	<rect x="216.2" y="276" class="st1" width="9.8" height="9.8"/>
	<rect x="216.2" y="266.2" class="st1" width="9.8" height="9.8"/>
	<rect x="216.2" y="168.2" class="st1" width="9.8" height="9.8"/>
	<rect x="216.2" y="158.4" class="st1" width="9.8" height="9.8"/>
	<rect x="206.4" y="276" class="st1" width="9.8" height="9.8"/>
	<rect x="206.4" y="266.2" class="st1" width="9.8" height="9.8"/>
	<rect x="206.4" y="168.2" class="st1" width="9.8" height="9.8"/>
	<rect x="206.4" y="158.4" class="st1" width="9.8" height="9.8"/>
	<rect x="196.6" y="276" class="st1" width="9.8" height="9.8"/>
	<rect x="196.6" y="266.2" class="st1" width="9.8" height="9.8"/>
	<rect x="196.6" y="168.2" class="st1" width="9.8" height="9.8"/>
	<rect x="196.6" y="158.4" class="st1" width="9.8" height="9.8"/>
	<rect x="186.8" y="285.8" class="st1" width="9.8" height="9.8"/>
	<rect x="186.8" y="276" class="st1" width="9.8" height="9.8"/>
	<rect x="186.8" y="266.2" class="st1" width="9.8" height="9.8"/>
	<rect x="186.8" y="256.4" class="st1" width="9.8" height="9.8"/>
	<rect x="186.8" y="246.6" class="st1" width="9.8" height="9.8"/>
	<rect x="186.8" y="236.8" class="st1" width="9.8" height="9.8"/>
	<rect x="186.8" y="227" class="st1" width="9.8" height="9.8"/>
	<rect x="186.8" y="217.2" class="st1" width="9.8" height="9.8"/>
	<rect x="186.8" y="207.4" class="st1" width="9.8" height="9.8"/>
	<rect x="186.8" y="197.6" class="st1" width="9.8" height="9.8"/>
	<rect x="186.8" y="187.8" class="st1" width="9.8" height="9.8"/>
	<rect x="186.8" y="178" class="st1" width="9.8" height="9.8"/>
	<rect x="186.8" y="168.2" class="st1" width="9.8" height="9.8"/>
	<rect x="186.8" y="158.4" class="st1" width="9.8" height="9.8"/>
	<rect x="186.8" y="148.6" class="st1" width="9.8" height="9.8"/>
	<rect x="177" y="285.8" class="st1" width="9.8" height="9.8"/>
	<rect x="177" y="276" class="st1" width="9.8" height="9.8"/>
	<rect x="177" y="266.2" class="st1" width="9.8" height="9.8"/>
	<rect x="177" y="256.4" class="st1" width="9.8" height="9.8"/>
	<rect x="177" y="246.6" class="st1" width="9.8" height="9.8"/>
	<rect x="177" y="236.8" class="st1" width="9.8" height="9.8"/>
	<rect x="177" y="227" class="st1" width="9.8" height="9.8"/>
	<rect x="177" y="217.2" class="st1" width="9.8" height="9.8"/>
	<rect x="177" y="207.4" class="st1" width="9.8" height="9.8"/>
	<rect x="177" y="197.6" class="st1" width="9.8" height="9.8"/>
	<rect x="177" y="187.8" class="st1" width="9.8" height="9.8"/>
	<rect x="177" y="178" class="st1" width="9.8" height="9.8"/>
	<rect x="177" y="168.2" class="st1" width="9.8" height="9.8"/>
	<rect x="177" y="158.4" class="st1" width="9.8" height="9.8"/>
	<rect x="177" y="148.6" class="st1" width="9.8" height="9.8"/>
	<rect x="167.2" y="285.8" class="st1" width="9.8" height="9.8"/>
	<rect x="167.2" y="276" class="st1" width="9.8" height="9.8"/>
	<rect x="167.2" y="266.2" class="st1" width="9.8" height="9.8"/>
	<rect x="167.2" y="168.2" class="st1" width="9.8" height="9.8"/>
	<rect x="167.2" y="158.4" class="st1" width="9.8" height="9.8"/>
	<rect x="167.2" y="148.6" class="st1" width="9.8" height="9.8"/>
</g>
</svg>
